<svg xmlns="http://www.w3.org/2000/svg" viewBox="0 0 1200 800">
  <defs>
    <radialGradient id="ticTacBg" cx="50%" cy="50%" r="70%">
      <stop offset="0%" style="stop-color:#DC2626;stop-opacity:1" />
      <stop offset="50%" style="stop-color:#B91C1C;stop-opacity:1" />
      <stop offset="100%" style="stop-color:#7F1D1D;stop-opacity:1" />
    </radialGradient>
    <filter id="battleGlow" x="-20%" y="-20%" width="140%" height="140%">
      <feGaussianBlur stdDeviation="4" result="coloredBlur"/>
      <feMerge> 
        <feMergeNode in="coloredBlur"/>
        <feMergeNode in="SourceGraphic"/>
      </feMerge>
    </filter>
  </defs>
  
  <!-- Battle background -->
  <rect width="1200" height="800" fill="url(#ticTacBg)"/>
  
  <!-- Battle arena pattern -->
  <g opacity="0.3">
    <circle cx="600" cy="400" r="300" fill="none" stroke="#F87171" stroke-width="4" stroke-dasharray="20,10"/>
    <circle cx="600" cy="400" r="200" fill="none" stroke="#FCA5A5" stroke-width="2" stroke-dasharray="15,15"/>
    <circle cx="600" cy="400" r="100" fill="none" stroke="#FEF2F2" stroke-width="1" stroke-dasharray="10,5"/>
  </g>
  
  <!-- Tic-tac-toe grid -->
  <g transform="translate(500,300)" opacity="0.4" filter="url(#battleGlow)">
    <!-- Grid lines -->
    <line x1="50" y1="0" x2="50" y2="200" stroke="#FBBF24" stroke-width="8" stroke-linecap="round"/>
    <line x1="150" y1="0" x2="150" y2="200" stroke="#FBBF24" stroke-width="8" stroke-linecap="round"/>
    <line x1="0" y1="50" x2="200" y2="50" stroke="#FBBF24" stroke-width="8" stroke-linecap="round"/>
    <line x1="0" y1="150" x2="200" y2="150" stroke="#FBBF24" stroke-width="8" stroke-linecap="round"/>
    
    <!-- X and O symbols -->
    <g transform="translate(25,25)">
      <line x1="5" y1="5" x2="35" y2="35" stroke="#F59E0B" stroke-width="6" stroke-linecap="round"/>
      <line x1="35" y1="5" x2="5" y2="35" stroke="#F59E0B" stroke-width="6" stroke-linecap="round"/>
    </g>
    
    <circle cx="175" cy="25" r="15" fill="none" stroke="#F59E0B" stroke-width="6"/>
    
    <g transform="translate(125,125)">
      <line x1="5" y1="5" x2="35" y2="35" stroke="#F59E0B" stroke-width="6" stroke-linecap="round"/>
      <line x1="35" y1="5" x2="5" y2="35" stroke="#F59E0B" stroke-width="6" stroke-linecap="round"/>
    </g>
  </g>
  
  <!-- Floating character symbols -->
  <g opacity="0.3">
    <!-- Luffy hat -->
    <g transform="translate(200,150)">
      <ellipse cx="0" cy="10" rx="25" ry="8" fill="#D97706"/>
      <ellipse cx="0" cy="0" rx="18" ry="15" fill="#F59E0B"/>
      <rect x="-15" y="-5" width="30" height="4" fill="#B91C1C" rx="2"/>
    </g>
    
    <!-- Sword -->
    <g transform="translate(900,600) rotate(45)">
      <rect x="-2" y="-40" width="4" height="80" fill="#6B7280"/>
      <rect x="-8" y="-5" width="16" height="10" fill="#374151"/>
      <circle cx="0" cy="0" r="3" fill="#F59E0B"/>
    </g>
  </g>
  
</svg>
