<svg width="1920" height="1080" viewBox="0 0 1920 1080" xmlns="http://www.w3.org/2000/svg">
  <defs>
    <linearGradient id="marine-gradient" x1="0%" y1="0%" x2="100%" y2="100%">
      <stop offset="0%" style="stop-color:#1E3A8A;stop-opacity:1" />
      <stop offset="50%" style="stop-color:#3B82F6;stop-opacity:1" />
      <stop offset="100%" style="stop-color:#FFFFFF;stop-opacity:1" />
    </linearGradient>
  </defs>
  <rect width="100%" height="100%" fill="url(#marine-gradient)"/>
  <!-- Marine base structures -->
  <rect x="400" y="400" width="300" height="300" fill="rgba(255,255,255,0.3)" rx="10"/>
  <rect x="500" y="300" width="100" height="100" fill="rgba(255,255,255,0.4)" rx="5"/>
  <rect x="1000" y="450" width="400" height="250" fill="rgba(255,255,255,0.3)" rx="10"/>
  <rect x="1150" y="350" width="100" height="100" fill="rgba(255,255,255,0.4)" rx="5"/>
  <!-- Seagulls -->
  <path d="M200,200 Q210,195 220,200 Q210,205 200,200" fill="rgba(255,255,255,0.7)"/>
  <path d="M400,150 Q410,145 420,150 Q410,155 400,150" fill="rgba(255,255,255,0.6)"/>
  <path d="M1400,180 Q1410,175 1420,180 Q1410,185 1400,180" fill="rgba(255,255,255,0.8)"/>
  <!-- Waves -->
  <path d="M0,900 Q480,880 960,900 T1920,900 L1920,1080 L0,1080 Z" fill="rgba(255,255,255,0.2)"/>
</svg>
