<svg width="1920" height="1080" viewBox="0 0 1920 1080" xmlns="http://www.w3.org/2000/svg">
  <defs>
    <radialGradient id="sunny-gradient" cx="50%" cy="30%" r="70%">
      <stop offset="0%" style="stop-color:#FFD700;stop-opacity:1" />
      <stop offset="40%" style="stop-color:#FF8C00;stop-opacity:1" />
      <stop offset="80%" style="stop-color:#DC143C;stop-opacity:1" />
      <stop offset="100%" style="stop-color:#8B0000;stop-opacity:1" />
    </radialGradient>
  </defs>
  <rect width="100%" height="100%" fill="url(#sunny-gradient)"/>
  <!-- Thousand Sunny silhouette -->
  <g transform="translate(960,400)" fill="rgba(255,215,0,0.3)">
    <path d="M-200,50 L-180,30 L-150,20 L-100,15 L-50,10 L0,8 L50,10 L100,15 L150,20 L180,30 L200,50 L180,80 L150,90 L100,95 L50,98 L0,100 L-50,98 L-100,95 L-150,90 L-180,80 Z"/>
    <rect x="-10" y="-80" width="20" height="80" fill="rgba(255,215,0,0.4)"/>
    <polygon points="-10,-80 10,-80 30,-60 -30,-60" fill="rgba(255,215,0,0.5)"/>
  </g>
  <!-- Ocean waves -->
  <path d="M0,800 Q480,780 960,800 T1920,800 L1920,1080 L0,1080 Z" fill="rgba(0,100,200,0.2)"/>
  <path d="M0,850 Q480,830 960,850 T1920,850 L1920,1080 L0,1080 Z" fill="rgba(0,150,255,0.1)"/>
</svg>
