<svg width="1920" height="1080" viewBox="0 0 1920 1080" xmlns="http://www.w3.org/2000/svg">
  <defs>
    <linearGradient id="wano-gradient" x1="0%" y1="0%" x2="100%" y2="100%">
      <stop offset="0%" style="stop-color:#4C1D95;stop-opacity:1" />
      <stop offset="30%" style="stop-color:#7C3AED;stop-opacity:1" />
      <stop offset="60%" style="stop-color:#EC4899;stop-opacity:1" />
      <stop offset="100%" style="stop-color:#EF4444;stop-opacity:1" />
    </linearGradient>
  </defs>
  <rect width="100%" height="100%" fill="url(#wano-gradient)"/>
  <!-- Mountains silhouettes -->
  <path d="M0,600 L200,400 L400,500 L600,350 L800,450 L1000,300 L1200,400 L1400,250 L1600,350 L1800,200 L1920,300 L1920,1080 L0,1080 Z" fill="rgba(0,0,0,0.4)"/>
  <path d="M0,700 L300,500 L600,600 L900,450 L1200,550 L1500,400 L1800,500 L1920,450 L1920,1080 L0,1080 Z" fill="rgba(0,0,0,0.3)"/>
  <!-- Cherry blossoms -->
  <circle cx="300" cy="200" r="8" fill="rgba(255,182,193,0.6)"/>
  <circle cx="500" cy="150" r="6" fill="rgba(255,182,193,0.5)"/>
  <circle cx="700" cy="180" r="7" fill="rgba(255,182,193,0.6)"/>
  <circle cx="1200" cy="120" r="5" fill="rgba(255,182,193,0.4)"/>
  <circle cx="1500" cy="160" r="9" fill="rgba(255,182,193,0.5)"/>
</svg>
